<?xml version="1.0" encoding="UTF-8" standalone="no"?>
<svg xmlns="http://www.w3.org/2000/svg" version="1.1" viewBox="0.00 0.00 188.00 244.00">
  <g stroke-width="2.00" fill="none" stroke-linecap="butt">
    <path stroke="#012d6c" stroke-opacity="0.914" vector-effect="non-scaling-stroke" d="   M 61.33 164.14   Q 61.39 163.34 62.66 164.82"></path>
    <path stroke="#012f71" stroke-opacity="0.863" vector-effect="non-scaling-stroke" d="   M 63.64 163.88   L 63.52 134.66"></path>
    <path stroke="#012f71" stroke-opacity="0.863" vector-effect="non-scaling-stroke" d="   M 62.85 74.02   Q 62.76 74.66 62.99 74.97"></path>
    <path stroke="#012d6c" stroke-opacity="0.914" vector-effect="non-scaling-stroke" d="   M 62.81 133.96   L 62.68 134.75   Q 62.61 135.16 62.20 135.26   Q 61.71 135.39 61.29 136.02"></path>
    <path stroke="#012d6c" stroke-opacity="0.914" vector-effect="non-scaling-stroke" d="   M 56.88 66.29   L 56.86 68.46"></path>
    <path stroke="#01367f" stroke-opacity="0.663" vector-effect="non-scaling-stroke" d="   M 56.86 68.46   L 56.87 69.04"></path>
    <path stroke="#012d6c" stroke-opacity="0.914" vector-effect="non-scaling-stroke" d="   M 56.87 69.04   L 56.87 72.71"></path>
    <path stroke="#01367f" stroke-opacity="0.663" vector-effect="non-scaling-stroke" d="   M 56.87 72.71   Q 56.87 72.84 56.88 72.96"></path>
    <path stroke="#012d6c" stroke-opacity="0.914" vector-effect="non-scaling-stroke" d="   M 56.88 72.96   L 56.87 76.71"></path>
    <path stroke="#01367f" stroke-opacity="0.663" vector-effect="non-scaling-stroke" d="   M 56.87 76.71   L 56.88 77.96"></path>
    <path stroke="#012d6c" stroke-opacity="0.914" vector-effect="non-scaling-stroke" d="   M 56.88 77.96   L 56.87 80.71"></path>
    <path stroke="#01367f" stroke-opacity="0.663" vector-effect="non-scaling-stroke" d="   M 56.87 80.71   Q 56.88 80.83 56.88 80.96"></path>
    <path stroke="#012d6c" stroke-opacity="0.914" vector-effect="non-scaling-stroke" d="   M 56.88 80.96   L 56.87 84.71"></path>
    <path stroke="#01367f" stroke-opacity="0.663" vector-effect="non-scaling-stroke" d="   M 56.87 84.71   Q 56.88 84.85 56.88 85.00"></path>
    <path stroke="#012d6c" stroke-opacity="0.914" vector-effect="non-scaling-stroke" d="   M 56.88 85.00   L 56.88 100.71"></path>
    <path stroke="#01367f" stroke-opacity="0.663" vector-effect="non-scaling-stroke" d="   M 56.88 100.71   Q 56.88 100.83 56.88 100.96"></path>
    <path stroke="#012d6c" stroke-opacity="0.914" vector-effect="non-scaling-stroke" d="   M 56.88 100.96   L 56.87 104.71"></path>
    <path stroke="#01367f" stroke-opacity="0.663" vector-effect="non-scaling-stroke" d="   M 56.87 104.71   Q 56.88 104.83 56.88 104.96"></path>
    <path stroke="#012d6c" stroke-opacity="0.914" vector-effect="non-scaling-stroke" d="   M 56.88 104.96   L 56.87 108.71"></path>
    <path stroke="#01367f" stroke-opacity="0.663" vector-effect="non-scaling-stroke" d="   M 56.87 108.71   Q 56.88 108.83 56.88 108.96"></path>
    <path stroke="#012d6c" stroke-opacity="0.914" vector-effect="non-scaling-stroke" d="   M 56.88 108.96   L 56.88 116.71"></path>
    <path stroke="#01367f" stroke-opacity="0.663" vector-effect="non-scaling-stroke" d="   M 56.88 116.71   Q 56.88 116.83 56.88 116.96"></path>
    <path stroke="#012d6c" stroke-opacity="0.914" vector-effect="non-scaling-stroke" d="   M 56.88 116.96   L 56.87 120.71"></path>
    <path stroke="#01367f" stroke-opacity="0.663" vector-effect="non-scaling-stroke" d="   M 56.87 120.71   Q 56.88 120.83 56.88 120.96"></path>
    <path stroke="#012d6c" stroke-opacity="0.914" vector-effect="non-scaling-stroke" d="   M 56.88 120.96   L 56.87 124.71"></path>
    <path stroke="#01367f" stroke-opacity="0.663" vector-effect="non-scaling-stroke" d="   M 56.87 124.71   Q 56.88 124.84 56.89 124.96"></path>
    <path stroke="#012d6c" stroke-opacity="0.914" vector-effect="non-scaling-stroke" d="   M 56.89 124.96   L 56.90 155.78"></path>
    <path stroke="#01367f" stroke-opacity="0.663" vector-effect="non-scaling-stroke" d="   M 56.90 155.78   L 56.88 156.96"></path>
    <path stroke="#012d6c" stroke-opacity="0.914" vector-effect="non-scaling-stroke" d="   M 56.88 156.96   L 56.88 160.96"></path>
    <path stroke="#01367f" stroke-opacity="0.663" vector-effect="non-scaling-stroke" d="   M 56.88 160.96   Q 57.34 162.29 56.29 163.28   Q 54.62 164.86 53.11 166.60   Q 53.07 166.65 53.10 166.71   L 53.24 166.95   Q 53.36 167.16 53.54 166.99   Q 55.26 165.35 56.89 163.63   C 58.06 162.38 57.49 161.43 57.49 160.05   Q 57.50 111.16 57.42 62.28   Q 57.42 62.02 57.20 62.05   L 57.19 62.05   Q 56.95 62.09 56.95 62.27   L 56.88 66.29"></path>
    <path stroke="#012d6c" stroke-opacity="0.914" vector-effect="non-scaling-stroke" d="   M 95.78 157.79   L 84.32 157.73   Q 83.82 157.73 83.44 158.04   Q 82.73 158.62 81.84 158.68   A 1.59 1.53 25.4 0 0 81.01 158.96   L 79.49 160.02"></path>
    <path stroke="#01367f" stroke-opacity="0.663" vector-effect="non-scaling-stroke" d="   M 79.49 160.02   Q 78.95 160.26 78.74 160.74"></path>
    <path stroke="#012d6c" stroke-opacity="0.914" vector-effect="non-scaling-stroke" d="   M 78.74 160.74   Q 77.67 161.45 77.69 162.45"></path>
    <path stroke="#012f71" stroke-opacity="0.863" vector-effect="non-scaling-stroke" d="   M 77.69 162.45   Q 77.67 162.74 77.50 162.94"></path>
    <path stroke="#012d6c" stroke-opacity="0.914" vector-effect="non-scaling-stroke" d="   M 77.50 162.94   Q 76.60 164.57 76.89 166.23"></path>
    <path stroke="#01367f" stroke-opacity="0.663" vector-effect="non-scaling-stroke" d="   M 76.89 166.23   Q 77.30 167.75 78.20 169.01"></path>
    <path stroke="#012d6c" stroke-opacity="0.914" vector-effect="non-scaling-stroke" d="   M 78.20 169.01   Q 78.07 169.14 77.95 169.28"></path>
    <path stroke="#012f71" stroke-opacity="0.863" vector-effect="non-scaling-stroke" d="   M 77.95 169.28   Q 80.70 173.70 86.76 173.54   Q 87.53 173.52 90.91 173.37   Q 90.95 173.37 94.47 172.67   Q 97.12 172.14 99.76 173.18   Q 101.70 173.93 104.96 173.30   Q 105.45 173.21 105.92 173.35   Q 109.40 174.43 112.38 172.52"></path>
    <path stroke="#012f71" stroke-opacity="0.863" vector-effect="non-scaling-stroke" d="   M 133.36 173.06   Q 133.61 173.24 133.95 173.43   Q 134.25 173.60 134.60 173.60   Q 143.29 173.41 150.60 173.60   A 0.15 0.15 0.0 0 0 150.70 173.33   Q 148.85 171.76 147.45 169.82   Q 147.30 169.61 147.04 169.57   Q 145.03 169.28 140.51 169.90   Q 137.14 170.36 134.82 167.85"></path>
    <path stroke="#012d6c" stroke-opacity="0.914" vector-effect="non-scaling-stroke" d="   M 134.82 167.85   Q 140.33 168.86 146.08 168.16   Q 146.62 168.09 146.55 167.55   Q 146.51 167.29 146.33 167.02"></path>
    <path stroke="#012d6c" stroke-opacity="0.914" vector-effect="non-scaling-stroke" d="   M 146.19 166.42   Q 146.05 165.63 145.23 164.83   Q 144.90 164.50 145.29 164.24   Q 147.14 163.03 147.13 161.21"></path>
    <path stroke="#012f71" stroke-opacity="0.863" vector-effect="non-scaling-stroke" d="   M 147.13 161.21   Q 148.12 160.08 148.36 159.24"></path>
    <path stroke="#012d6c" stroke-opacity="0.914" vector-effect="non-scaling-stroke" d="   M 148.36 159.24   L 149.56 158.27"></path>
    <path stroke="#01367f" stroke-opacity="0.663" vector-effect="non-scaling-stroke" d="   M 149.56 158.27   Q 149.88 158.45 150.12 158.09   A 0.21 0.21 0.0 0 0 149.95 157.76   L 134.75 157.80"></path>
    <path stroke="#012d6c" stroke-opacity="0.914" vector-effect="non-scaling-stroke" d="   M 134.75 157.80   Q 134.53 157.71 134.30 157.75"></path>
    <path stroke="#012f71" stroke-opacity="0.863" vector-effect="non-scaling-stroke" d="   M 134.30 157.75   L 129.56 157.64   Q 129.07 157.63 128.69 157.95   Q 127.73 158.76 126.17 158.76"></path>
  </g>
  <path fill="#012e6f" d="   M 62.46 0.00   L 67.08 20.02   A 6.17 5.99 -67.3 0 0 67.78 21.80   L 80.89 44.51   Q 81.32 45.26 80.71 45.86   L 72.44 54.13   A 1.77 1.75 60.7 0 0 71.98 55.80   Q 72.28 57.01 71.94 58.45   Q 71.80 59.03 71.21 59.03   L 49.02 59.03   A 0.64 0.64 0.0 0 1 48.38 58.39   L 48.38 55.84   Q 48.38 55.37 48.05 55.03   L 38.68 45.66   Q 38.33 45.32 38.58 44.89   L 51.82 21.95   Q 52.39 20.96 52.65 19.85   L 57.19 0.00   L 62.46 0.00   Z   M 59.91 53.62   Q 64.86 53.62 69.72 53.59   A 1.44 1.43 22.0 0 0 70.71 53.17   L 78.67 45.22   Q 78.90 44.98 78.73 44.70   Q 68.00 26.46 67.54 25.76   Q 65.56 22.79 64.83 19.41   Q 61.52 4.22 61.21 2.59   Q 61.19 2.53 61.14 2.49   Q 61.02 2.41 60.91 2.39   Q 60.76 2.35 60.76 2.51   L 60.85 34.00   Q 60.85 34.49 61.31 34.69   Q 66.10 36.73 65.24 41.31   C 64.78 43.78 62.38 45.61 59.90 45.61   C 57.42 45.61 55.02 43.79 54.55 41.32   Q 53.69 36.74 58.47 34.69   Q 58.93 34.49 58.93 34.00   L 58.97 2.51   Q 58.97 2.35 58.82 2.39   Q 58.71 2.41 58.59 2.49   Q 58.54 2.53 58.52 2.59   Q 58.21 4.22 54.93 19.42   Q 54.20 22.80 52.23 25.77   Q 51.77 26.47 41.07 44.73   Q 40.90 45.01 41.13 45.25   L 49.10 53.19   A 1.44 1.43 -22.1 0 0 50.09 53.61   Q 54.95 53.63 59.91 53.62   Z   M 63.79 40.09   A 3.76 3.76 0.0 0 0 60.03 36.33   A 3.76 3.76 0.0 0 0 56.27 40.09   A 3.76 3.76 0.0 0 0 60.03 43.85   A 3.76 3.76 0.0 0 0 63.79 40.09   Z   M 70.19 56.38   A 0.72 0.72 0.0 0 0 69.47 55.66   L 50.77 55.66   A 0.72 0.72 0.0 0 0 50.05 56.38   L 50.05 56.76   A 0.72 0.72 0.0 0 0 50.77 57.48   L 69.47 57.48   A 0.72 0.72 0.0 0 0 70.19 56.76   L 70.19 56.38   Z"></path>
  <path fill="#012e6f" d="   M 94.87 37.27   Q 88.11 38.84 82.68 43.83   Q 82.12 44.34 81.59 43.80   L 80.97 43.19   A 0.89 0.88 48.3 0 1 81.04 41.88   Q 87.55 36.57 95.41 34.21   Q 96.21 33.97 96.96 34.32   Q 105.92 38.41 115.71 44.05   Q 125.79 49.86 132.35 55.14   Q 145.96 66.06 157.22 80.56   Q 159.96 84.08 163.11 90.10   Q 167.25 97.99 168.15 100.10   Q 173.52 112.85 169.55 127.09   Q 165.64 141.13 153.39 148.92   C 152.46 149.51 151.43 150.61 151.08 151.58   Q 149.99 154.54 148.83 151.62   Q 148.28 150.26 149.04 147.76   Q 149.36 146.69 151.13 144.75   Q 154.14 141.46 155.87 139.38   Q 162.59 131.27 163.60 119.35   Q 164.61 107.45 160.12 98.07   Q 145.86 68.27 117.37 50.63   Q 99.71 39.70 95.80 37.42   Q 95.36 37.16 94.87 37.27   Z"></path>
  <path fill="#012e6f" d="   M 89.96 42.89   Q 87.91 43.94 85.15 46.08   Q 84.24 46.78 83.68 45.85   A 0.98 0.97 -36.2 0 1 83.88 44.62   Q 86.08 42.66 89.07 41.14   Q 92.06 39.62 94.93 39.00   A 0.98 0.97 -17.7 0 1 96.05 39.56   Q 96.47 40.56 95.37 40.88   Q 92.01 41.85 89.96 42.89   Z"></path>
  <path fill="#012e6f" d="   M 75.95 55.20   C 74.63 56.55 74.89 57.06 74.90 58.54   A 0.45 0.44 -90.0 0 1 74.46 58.99   L 73.28 58.99   A 0.44 0.43 88.6 0 1 72.85 58.57   C 72.79 56.89 72.55 55.80 74.00 54.42   Q 77.32 51.26 81.87 46.56   Q 82.52 45.89 82.94 46.75   L 83.17 47.24   Q 83.47 47.85 82.93 48.37   Q 79.54 51.56 75.95 55.20   Z"></path>
  <path fill="#012e6f" d="   M 109.86 53.95   Q 108.88 53.31 108.11 53.10   Q 107.87 53.03 107.87 52.78   L 107.87 52.50   Q 107.87 52.31 108.06 52.33   Q 108.86 52.40 109.35 52.68   Q 122.26 59.87 133.69 70.06   Q 148.15 82.95 155.04 100.37   Q 157.58 106.78 157.65 111.42   Q 157.72 116.62 155.98 122.73   Q 153.49 131.42 144.28 129.28   A 0.28 0.28 0.0 0 1 144.09 128.87   Q 151.75 114.57 146.84 99.19   C 140.91 80.62 126.07 64.54 109.86 53.95   Z"></path>
  <path fill="#012e6f" d="   M 53.19 168.58   C 52.78 167.11 51.70 166.95 50.95 166.17   Q 47.18 162.27 43.31 158.53   Q 42.56 157.80 43.41 157.18   C 44.47 156.41 45.27 156.00 45.27 154.38   Q 45.28 78.88 45.25 61.05   A 0.37 0.36 90.0 0 1 45.61 60.68   L 58.59 60.68   A 0.45 0.45 0.0 0 1 59.04 61.13   L 59.04 163.06   A 0.86 0.84 -22.8 0 1 58.79 163.66   L 53.73 168.72   A 0.33 0.32 -30.3 0 1 53.19 168.58   Z   M 56.88 66.29   L 56.86 68.46   L 56.87 69.04   L 56.87 72.71   Q 56.87 72.84 56.88 72.96   L 56.87 76.71   L 56.88 77.96   L 56.87 80.71   Q 56.88 80.83 56.88 80.96   L 56.87 84.71   Q 56.88 84.85 56.88 85.00   L 56.88 100.71   Q 56.88 100.83 56.88 100.96   L 56.87 104.71   Q 56.88 104.83 56.88 104.96   L 56.87 108.71   Q 56.88 108.83 56.88 108.96   L 56.88 116.71   Q 56.88 116.83 56.88 116.96   L 56.87 120.71   Q 56.88 120.83 56.88 120.96   L 56.87 124.71   Q 56.88 124.84 56.89 124.96   L 56.90 155.78   L 56.88 156.96   L 56.88 160.96   Q 57.34 162.29 56.29 163.28   Q 54.62 164.86 53.11 166.60   Q 53.07 166.65 53.10 166.71   L 53.24 166.95   Q 53.36 167.16 53.54 166.99   Q 55.26 165.35 56.89 163.63   C 58.06 162.38 57.49 161.43 57.49 160.05   Q 57.50 111.16 57.42 62.28   Q 57.42 62.02 57.20 62.05   L 57.19 62.05   Q 56.95 62.09 56.95 62.27   L 56.88 66.29   Z"></path>
  <path fill="#012e6f" d="   M 61.33 164.14   Q 61.39 163.34 62.66 164.82   L 52.87 174.68   Q 52.53 175.02 52.12 174.75   Q 50.57 173.72 49.36 171.82   Q 49.04 171.32 49.51 170.96   L 50.84 169.96   Q 51.02 169.83 50.86 169.68   L 50.59 169.40   Q 50.44 169.25 50.29 169.40   L 48.48 171.21   Q 47.85 171.84 48.48 172.48   L 51.56 175.56   Q 52.35 176.34 53.13 175.56   Q 61.81 166.97 63.08 165.59   Q 63.45 165.19 63.64 163.88   L 63.52 134.66   L 63.40 61.74   Q 63.39 61.49 63.15 61.54   L 62.88 61.60   Q 62.84 61.60 62.84 61.64   L 62.85 74.02   Q 62.76 74.66 62.99 74.97   L 62.81 133.96   L 62.68 134.75   Q 62.61 135.16 62.20 135.26   Q 61.71 135.39 61.29 136.02   L 61.28 61.29   Q 61.28 60.70 61.86 60.70   L 74.72 60.70   Q 75.18 60.70 75.18 61.17   L 75.18 156.49   Q 75.18 157.17 74.49 157.17   L 73.14 157.17   A 1.19 1.19 0.0 0 0 71.95 158.36   L 71.95 173.11   A 0.71 0.70 -0.0 0 0 72.66 173.81   L 74.65 173.81   A 0.76 0.76 0.0 0 1 75.41 174.57   L 75.41 177.52   A 0.51 0.51 0.0 0 1 75.25 177.89   L 56.08 197.06   A 0.39 0.39 0.0 0 1 55.52 197.06   L 30.16 171.70   Q 29.70 171.25 30.16 170.79   L 41.50 159.45   Q 41.94 159.01 42.37 159.45   L 52.46 169.84   Q 52.55 169.93 52.26 170.31   Q 52.00 170.66 51.29 171.14   Q 50.81 171.46 51.09 171.96   Q 51.43 172.59 52.04 173.00   A 0.62 0.60 -50.0 0 0 52.83 172.92   L 61.33 164.14   Z"></path>
  <rect fill="#012e6f" x="76.63" y="60.61" width="1.74" height="91.46" rx="0.55"></rect>
  <path fill="#014eaf" fill-opacity="0.325" d="   M 56.88 160.96   L 56.88 156.96   L 56.90 155.78   L 56.89 124.96   Q 56.88 124.84 56.87 124.71   L 56.88 120.96   Q 56.88 120.83 56.87 120.71   L 56.88 116.96   Q 56.88 116.83 56.88 116.71   L 56.88 108.96   Q 56.88 108.83 56.87 108.71   L 56.88 104.96   Q 56.88 104.83 56.87 104.71   L 56.88 100.96   Q 56.88 100.83 56.88 100.71   L 56.88 85.00   Q 56.88 84.85 56.87 84.71   L 56.88 80.96   Q 56.88 80.83 56.87 80.71   L 56.88 77.96   L 56.87 76.71   L 56.88 72.96   Q 56.87 72.84 56.87 72.71   L 56.87 69.04   L 56.86 68.46   L 56.88 66.29   L 56.95 62.27   Q 56.95 62.09 57.19 62.05   L 57.20 62.05   Q 57.42 62.02 57.42 62.28   Q 57.50 111.16 57.49 160.05   C 57.49 161.43 58.06 162.38 56.89 163.63   Q 55.26 165.35 53.54 166.99   Q 53.36 167.16 53.24 166.95   L 53.10 166.71   Q 53.07 166.65 53.11 166.60   Q 54.62 164.86 56.29 163.28   Q 57.34 162.29 56.88 160.96   Z"></path>
  <path fill="#012c68" fill-opacity="0.827" d="   M 56.88 66.29   L 56.86 68.46   L 56.88 66.29   Z"></path>
  <path fill="#012c68" fill-opacity="0.827" d="   M 56.87 72.71   L 56.87 69.04   L 56.87 72.71   Z"></path>
  <path fill="#012c68" fill-opacity="0.827" d="   M 56.87 76.71   L 56.88 72.96   L 56.87 76.71   Z"></path>
  <path fill="#013174" fill-opacity="0.722" d="   M 62.99 74.97   Q 62.76 74.66 62.85 74.02   Q 62.83 74.59 62.99 74.97   Z"></path>
  <path fill="#012c68" fill-opacity="0.827" d="   M 56.87 80.71   L 56.88 77.96   L 56.87 80.71   Z"></path>
  <path fill="#012c68" fill-opacity="0.827" d="   M 56.87 84.71   L 56.88 80.96   L 56.87 84.71   Z"></path>
  <path fill="#012c68" fill-opacity="0.827" d="   M 56.88 100.71   L 56.88 85.00   L 56.88 100.71   Z"></path>
  <path fill="#012c68" fill-opacity="0.827" d="   M 56.87 104.71   L 56.88 100.96   L 56.87 104.71   Z"></path>
  <path fill="#012c68" fill-opacity="0.827" d="   M 56.87 108.71   L 56.88 104.96   L 56.87 108.71   Z"></path>
  <path fill="#012c68" fill-opacity="0.827" d="   M 56.88 116.71   L 56.88 108.96   L 56.88 116.71   Z"></path>
  <path fill="#012c68" fill-opacity="0.827" d="   M 56.87 120.71   L 56.88 116.96   L 56.87 120.71   Z"></path>
  <path fill="#012c68" fill-opacity="0.827" d="   M 56.87 124.71   L 56.88 120.96   L 56.87 124.71   Z"></path>
  <path fill="#012c68" fill-opacity="0.827" d="   M 56.90 155.78   L 56.89 124.96   L 56.90 155.78   Z"></path>
  <path fill="#012c68" fill-opacity="0.827" d="   M 62.99 134.62   L 62.99 163.90   L 62.66 164.82   Q 61.39 163.34 61.33 164.14   L 61.29 136.02   Q 61.71 135.39 62.20 135.26   Q 62.61 135.16 62.68 134.75   L 62.81 133.96   L 62.99 134.62   Z"></path>
  <path fill="#013174" fill-opacity="0.722" d="   M 63.52 134.66   L 63.64 163.88   L 62.99 163.90   L 62.99 134.62   Q 63.33 134.58 63.52 134.66   Z"></path>
  <path fill="#012e6f" d="   M 76.65 157.76   L 76.65 154.71   A 0.60 0.59 -90.0 0 1 77.24 154.11   Q 141.06 154.04 153.82 153.94   Q 156.93 153.92 157.49 153.88   Q 159.01 153.76 157.72 154.69   C 155.57 156.23 150.76 158.08 148.91 161.00   Q 145.92 165.68 149.12 170.25   C 150.89 172.79 155.13 174.90 158.35 176.70   Q 159.28 177.21 158.22 177.21   Q 126.78 177.04 83.07 177.14   Q 78.84 177.15 77.36 176.89   Q 76.84 176.80 76.84 176.27   L 76.84 173.61   A 0.93 0.92 15.6 0 0 76.39 172.82   Q 75.56 172.32 74.18 172.39   Q 73.28 172.43 73.28 171.53   L 73.28 159.13   Q 73.28 158.57 73.84 158.57   L 75.84 158.57   A 0.81 0.81 0.0 0 0 76.65 157.76   Z   M 95.78 157.79   L 84.32 157.73   Q 83.82 157.73 83.44 158.04   Q 82.73 158.62 81.84 158.68   A 1.59 1.53 25.4 0 0 81.01 158.96   L 79.49 160.02   Q 78.95 160.26 78.74 160.74   Q 77.67 161.45 77.69 162.45   Q 77.67 162.74 77.50 162.94   Q 76.60 164.57 76.89 166.23   Q 77.30 167.75 78.20 169.01   Q 78.07 169.14 77.95 169.28   Q 80.70 173.70 86.76 173.54   Q 87.53 173.52 90.91 173.37   Q 90.95 173.37 94.47 172.67   Q 97.12 172.14 99.76 173.18   Q 101.70 173.93 104.96 173.30   Q 105.45 173.21 105.92 173.35   Q 109.40 174.43 112.38 172.52   L 117.10 172.60   Q 117.39 172.60 117.59 172.82   Q 117.67 172.90 117.81 173.05   Q 118.15 173.41 118.64 173.40   L 133.36 173.06   Q 133.61 173.24 133.95 173.43   Q 134.25 173.60 134.60 173.60   Q 143.29 173.41 150.60 173.60   A 0.15 0.15 0.0 0 0 150.70 173.33   Q 148.85 171.76 147.45 169.82   Q 147.30 169.61 147.04 169.57   Q 145.03 169.28 140.51 169.90   Q 137.14 170.36 134.82 167.85   Q 140.33 168.86 146.08 168.16   Q 146.62 168.09 146.55 167.55   Q 146.51 167.29 146.33 167.02   Q 146.17 166.71 146.19 166.42   Q 146.05 165.63 145.23 164.83   Q 144.90 164.50 145.29 164.24   Q 147.14 163.03 147.13 161.21   Q 148.12 160.08 148.36 159.24   L 149.56 158.27   Q 149.88 158.45 150.12 158.09   A 0.21 0.21 0.0 0 0 149.95 157.76   L 134.75 157.80   Q 134.53 157.71 134.30 157.75   L 129.56 157.64   Q 129.07 157.63 128.69 157.95   Q 127.73 158.76 126.17 158.76   Q 124.63 158.20 122.53 158.41   Q 122.01 158.46 121.71 158.03   Q 121.54 157.78 121.28 157.62   Q 120.93 157.40 120.19 157.43   Q 113.30 157.69 106.41 157.58   Q 104.72 157.55 101.10 157.81   Q 98.45 157.99 95.78 157.79   Z"></path>
  <path fill="#012c68" fill-opacity="0.827" d="   M 56.88 160.96   L 56.88 156.96   L 56.88 160.96   Z"></path>
  <path fill="#012c68" fill-opacity="0.827" d="   M 95.78 157.79   L 101.32 158.01   A 1.62 1.58 61.1 0 1 102.05 158.23   Q 104.69 159.85 106.54 159.64   Q 107.39 159.54 107.74 160.01   L 109.07 161.79   Q 109.41 162.25 108.84 162.25   L 101.56 162.25   A 1.80 1.80 0.0 0 0 100.15 162.93   L 99.78 163.41   Q 99.22 164.12 100.12 164.12   L 112.47 164.12   Q 112.92 164.12 113.04 164.55   Q 113.22 165.20 113.13 166.03   Q 106.48 165.34 100.30 166.67   C 98.29 166.67 96.05 166.25 94.14 166.58   Q 92.53 166.85 91.51 166.31   Q 91.06 166.08 90.57 166.25   Q 88.61 166.95 87.15 166.69   Q 86.85 166.64 86.64 166.85   Q 86.52 166.97 86.44 167.16   Q 86.28 167.59 86.09 167.17   Q 85.93 166.84 85.73 166.78   Q 83.67 166.16 81.56 166.40   Q 81.08 166.45 80.75 166.80   Q 80.50 167.06 80.20 167.12   Q 79.91 167.17 79.37 166.82   Q 78.33 166.15 76.89 166.23   Q 76.60 164.57 77.50 162.94   Q 77.72 163.29 77.85 163.11   Q 78.12 162.76 77.69 162.45   Q 77.67 161.45 78.74 160.74   Q 79.07 160.93 79.49 160.02   L 81.01 158.96   A 1.59 1.53 25.4 0 1 81.84 158.68   Q 82.73 158.62 83.44 158.04   Q 83.82 157.73 84.32 157.73   L 95.78 157.79   Z"></path>
  <path fill="#013174" fill-opacity="0.722" d="   M 134.30 157.75   Q 132.67 157.84 132.31 159.00   Q 132.26 159.16 132.38 159.23   Q 132.44 159.26 132.51 159.27   Q 132.67 159.30 132.55 159.37   C 131.26 160.14 130.00 160.55 128.50 160.77   Q 128.96 159.84 128.25 159.64   Q 127.16 159.32 126.17 158.76   Q 127.73 158.76 128.69 157.95   Q 129.07 157.63 129.56 157.64   L 134.30 157.75   Z"></path>
  <path fill="#012c68" fill-opacity="0.827" d="   M 134.75 157.80   Q 134.70 158.15 135.25 158.16   Q 142.38 158.36 149.56 158.27   L 148.36 159.24   Q 145.42 161.42 147.13 161.21   Q 147.14 163.03 145.29 164.24   Q 144.90 164.50 145.23 164.83   Q 146.05 165.63 146.19 166.42   Q 145.72 166.50 145.71 166.80   Q 145.69 167.17 145.86 167.46   Q 146.07 167.83 146.20 167.43   L 146.33 167.02   Q 146.51 167.29 146.55 167.55   Q 146.62 168.09 146.08 168.16   Q 140.33 168.86 134.82 167.85   Q 133.22 167.01 131.44 167.46   Q 131.42 167.47 131.23 167.33   Q 130.98 167.14 131.25 167.11   L 133.36 166.91   Q 133.85 166.86 133.66 166.28   L 133.42 165.52   L 135.74 165.53   A 0.87 0.87 0.0 0 0 136.62 164.66   L 136.62 163.95   Q 136.62 163.17 135.84 163.17   L 120.20 163.17   A 0.19 0.19 0.0 0 1 120.01 162.98   L 120.01 162.65   Q 120.01 162.44 120.22 162.44   L 125.93 162.44   A 0.62 0.61 0.0 0 0 126.55 161.83   L 126.55 161.21   Q 126.55 160.63 127.12 160.77   Q 127.87 160.96 128.50 160.77   C 130.00 160.55 131.26 160.14 132.55 159.37   Q 132.67 159.30 132.51 159.27   Q 132.44 159.26 132.38 159.23   Q 132.26 159.16 132.31 159.00   Q 132.67 157.84 134.30 157.75   Q 134.53 157.71 134.75 157.80   Z   M 138.34 167.03   C 138.97 167.10 139.64 166.91 140.68 166.89   Q 140.80 166.89 140.85 166.85   Q 140.91 166.80 140.90 166.72   Q 140.89 166.61 140.69 166.63   L 138.39 166.83   Q 137.29 166.92 138.34 167.03   Z   M 142.60 166.65   Q 142.39 166.70 142.17 166.64   Q 141.35 166.45 142.08 166.86   Q 142.57 167.14 143.25 166.96   Q 143.48 166.90 143.24 166.86   Q 143.14 166.84 143.10 166.80   Q 142.89 166.59 142.60 166.65   Z"></path>
  <path fill="#014eaf" fill-opacity="0.325" d="   M 149.56 158.27   Q 142.38 158.36 135.25 158.16   Q 134.70 158.15 134.75 157.80   L 149.95 157.76   A 0.21 0.21 0.0 0 1 150.12 158.09   Q 149.88 158.45 149.56 158.27   Z"></path>
  <path fill="#013174" fill-opacity="0.722" d="   M 148.36 159.24   Q 148.12 160.08 147.13 161.21   Q 145.42 161.42 148.36 159.24   Z"></path>
  <path fill="#014eaf" fill-opacity="0.325" d="   M 79.49 160.02   Q 79.07 160.93 78.74 160.74   Q 78.95 160.26 79.49 160.02   Z"></path>
  <path fill="#013174" fill-opacity="0.722" d="   M 77.50 162.94   Q 77.67 162.74 77.69 162.45   Q 78.12 162.76 77.85 163.11   Q 77.72 163.29 77.50 162.94   Z"></path>
  <path fill="#013174" fill-opacity="0.722" d="   M 133.42 165.52   L 133.66 166.28   Q 133.85 166.86 133.36 166.91   L 131.25 167.11   Q 130.98 167.14 131.23 167.33   Q 131.42 167.47 131.44 167.46   Q 133.22 167.01 134.82 167.85   Q 137.14 170.36 140.51 169.90   Q 145.03 169.28 147.04 169.57   Q 147.30 169.61 147.45 169.82   Q 148.85 171.76 150.70 173.33   A 0.15 0.15 0.0 0 1 150.60 173.60   Q 143.29 173.41 134.60 173.60   Q 134.25 173.60 133.95 173.43   Q 133.61 173.24 133.36 173.06   Q 132.78 171.84 132.64 170.53   Q 132.59 170.01 132.14 169.75   L 127.43 167.03   A 0.86 0.86 0.0 0 1 127.67 165.44   Q 130.38 164.84 133.42 165.52   Z"></path>
  <path fill="#013174" fill-opacity="0.722" d="   M 113.13 166.03   Q 111.85 167.98 110.49 167.71   Q 109.77 167.57 108.75 167.64   Q 108.24 167.68 107.91 168.06   Q 106.56 169.63 105.34 170.21   A 0.72 0.70 -11.3 0 0 104.94 170.79   Q 104.93 171.06 105.02 171.26   Q 105.19 171.63 105.59 171.56   Q 109.53 170.88 112.38 172.52   Q 109.40 174.43 105.92 173.35   Q 105.45 173.21 104.96 173.30   Q 101.70 173.93 99.76 173.18   Q 97.12 172.14 94.47 172.67   Q 90.95 173.37 90.91 173.37   Q 87.53 173.52 86.76 173.54   Q 80.70 173.70 77.95 169.28   Q 85.45 168.81 92.30 170.07   Q 95.02 170.57 97.19 170.17   Q 99.62 169.72 102.04 169.25   Q 102.61 169.13 102.21 168.71   Q 101.63 168.10 100.36 167.87   L 100.30 166.67   Q 106.48 165.34 113.13 166.03   Z"></path>
  <path fill="#014eaf" fill-opacity="0.325" d="   M 100.30 166.67   L 100.36 167.87   L 95.70 167.21   Q 95.20 167.14 94.82 167.47   Q 94.44 167.81 94.16 167.81   Q 86.51 167.82 78.85 167.94   Q 78.33 167.95 78.17 168.45   Q 78.08 168.73 78.20 169.01   Q 77.30 167.75 76.89 166.23   Q 78.33 166.15 79.37 166.82   Q 79.91 167.17 80.20 167.12   Q 80.50 167.06 80.75 166.80   Q 81.08 166.45 81.56 166.40   Q 83.67 166.16 85.73 166.78   Q 85.93 166.84 86.09 167.17   Q 86.28 167.59 86.44 167.16   Q 86.52 166.97 86.64 166.85   Q 86.85 166.64 87.15 166.69   Q 88.61 166.95 90.57 166.25   Q 91.06 166.08 91.51 166.31   Q 92.53 166.85 94.14 166.58   C 96.05 166.25 98.29 166.67 100.30 166.67   Z   M 87.16 167.27   Q 87.18 167.41 87.26 167.24   Q 87.30 167.18 87.28 167.14   Q 87.25 167.09 87.18 167.18   A 0.11 0.11 0.0 0 0 87.16 167.27   Z   M 94.22 167.31   Q 94.22 167.32 94.23 167.32   A 0.01 0.01 0.0 0 0 94.23 167.30   L 94.22 167.28   A 0.02 0.01 60.1 0 0 94.22 167.31   Z"></path>
  <path fill="#012c68" fill-opacity="0.827" d="   M 87.16 167.27   A 0.11 0.11 0.0 0 1 87.18 167.18   Q 87.25 167.09 87.28 167.14   Q 87.30 167.18 87.26 167.24   Q 87.18 167.41 87.16 167.27   Z"></path>
  <path fill="#012c68" fill-opacity="0.827" d="   M 94.22 167.28   L 94.23 167.30   A 0.01 0.01 0.0 0 1 94.23 167.32   Q 94.22 167.32 94.22 167.31   A 0.02 0.01 60.1 0 1 94.22 167.28   Z"></path>
  <path fill="#012c68" fill-opacity="0.827" d="   M 100.36 167.87   Q 101.63 168.10 102.21 168.71   Q 102.61 169.13 102.04 169.25   Q 99.62 169.72 97.19 170.17   Q 95.02 170.57 92.30 170.07   Q 85.45 168.81 77.95 169.28   Q 78.07 169.14 78.20 169.01   Q 78.08 168.73 78.17 168.45   Q 78.33 167.95 78.85 167.94   Q 86.51 167.82 94.16 167.81   Q 94.44 167.81 94.82 167.47   Q 95.20 167.14 95.70 167.21   L 100.36 167.87   Z"></path>
  <path fill="#012e6f" d="   M 161.47 186.48   A 0.63 0.63 0.0 0 1 162.34 186.27   L 162.96 186.66   A 2.12 1.87 31.6 0 1 163.79 189.36   L 162.46 191.52   A 2.12 1.87 31.6 0 1 159.67 192.01   L 159.05 191.62   A 0.63 0.63 0.0 0 1 158.84 190.76   L 161.47 186.48   Z"></path>
  <path fill="#012e6f" d="   M 77.43 190.75   L 75.18 193.60   A 0.86 0.86 0.0 0 1 73.93 193.71   L 72.64 192.54   A 0.86 0.86 0.0 0 1 72.51 191.41   L 75.26 187.48   A 0.86 0.86 0.0 0 1 76.78 187.68   L 77.57 189.93   A 0.86 0.86 0.0 0 1 77.43 190.75   Z"></path>
  <path fill="#012e6f" d="   M 161.67 194.63   L 163.34 192.11   A 0.65 0.65 0.0 0 1 164.31 191.98   L 166.00 193.43   A 0.65 0.65 0.0 0 1 166.13 194.26   L 163.61 198.52   A 0.65 0.65 0.0 0 1 162.63 198.69   L 161.20 197.51   A 0.65 0.65 0.0 0 0 160.24 197.66   L 158.64 200.23   A 0.65 0.65 0.0 0 1 157.77 200.44   L 155.68 199.24   A 0.65 0.65 0.0 0 1 155.45 198.34   L 158.24 193.67   A 0.65 0.65 0.0 0 1 159.21 193.51   L 160.71 194.76   A 0.65 0.65 0.0 0 0 161.67 194.63   Z"></path>
  <path fill="#012e6f" d="   M 174.71 198.46   A 0.71 0.71 0.0 0 1 174.44 197.49   L 176.63 193.68   A 1.75 1.68 29.9 0 1 178.99 193.10   L 179.35 193.31   A 1.75 1.68 29.9 0 1 180.03 195.63   L 177.84 199.44   A 0.71 0.71 0.0 0 1 176.87 199.70   L 174.71 198.46   Z"></path>
  <path fill="#012e6f" d="   M 73.37 199.38   Q 72.66 200.71 70.99 202.08   Q 70.62 202.39 70.21 202.15   L 68.13 200.95   Q 67.37 200.52 67.81 199.76   L 70.54 195.03   A 0.88 0.88 0.0 0 1 71.98 194.91   Q 73.86 197.17 74.44 196.44   Q 75.76 194.78 76.62 193.81   Q 77.38 192.93 78.20 193.75   L 79.35 194.90   Q 80.36 195.91 79.47 197.04   L 76.62 200.66   A 0.65 0.65 0.0 0 1 75.64 200.72   L 74.18 199.26   Q 73.70 198.78 73.37 199.38   Z"></path>
  <path fill="#012e6f" d="   M 129.66 198.05   L 127.69 201.93   A 0.86 0.86 0.0 0 1 126.39 202.22   L 124.78 200.96   A 0.86 0.86 0.0 0 1 124.56 199.86   L 127.01 195.52   A 0.86 0.86 0.0 0 1 128.48 195.47   L 129.61 197.19   A 0.86 0.86 0.0 0 1 129.66 198.05   Z"></path>
  <path fill="#012e6f" d="   M 74.94 211.57   C 76.82 212.11 77.96 213.28 76.81 215.30   C 75.54 217.52 74.57 219.80 72.15 220.96   Q 70.41 221.79 67.53 223.01   Q 65.06 224.05 63.10 225.31   Q 58.08 228.53 55.91 229.64   Q 41.16 237.13 25.55 235.27   Q 18.37 234.41 14.47 229.35   Q 13.07 227.53 13.36 224.89   A 0.37 0.36 4.2 0 0 13.00 224.48   Q 12.87 224.48 12.76 224.56   Q 12.55 224.71 12.47 224.85   Q 10.62 228.19 7.39 229.39   Q 6.90 229.57 6.64 229.12   Q 6.21 228.36 6.79 227.53   C 7.82 226.07 10.07 225.16 11.18 223.58   C 13.18 220.73 13.36 216.76 15.19 213.97   Q 15.76 213.11 16.58 213.16   A 0.52 0.52 0.0 0 1 17.06 213.81   Q 16.26 216.77 15.64 218.17   C 12.92 224.25 23.41 227.89 27.44 228.36   Q 50.61 231.06 69.00 216.57   Q 70.04 215.76 68.90 215.10   L 68.59 214.92   Q 67.43 214.25 66.54 215.26   Q 64.16 217.98 62.13 220.90   Q 62.11 220.92 62.09 220.91   L 61.78 220.73   Q 61.30 220.46 61.61 220.00   Q 63.84 216.75 66.11 213.86   Q 67.41 212.23 69.05 212.03   Q 69.58 211.97 69.95 212.35   Q 70.39 212.81 70.41 212.89   Q 70.84 214.97 71.69 213.05   C 72.67 210.80 75.27 208.15 77.23 206.97   Q 78.85 206.00 80.66 206.42   Q 81.17 206.54 81.54 206.18   Q 83.20 204.61 84.90 203.99   Q 85.39 203.81 85.62 203.35   C 86.97 200.76 87.82 198.25 90.15 197.52   Q 90.57 197.39 90.84 197.04   L 92.02 195.54   A 0.59 0.59 0.0 0 1 93.04 195.72   Q 94.14 199.00 91.40 200.95   Q 90.99 201.25 90.51 201.10   L 89.49 200.79   Q 89.19 200.69 88.74 201.19   Q 88.51 201.46 87.71 203.46   C 86.69 206.03 83.09 207.96 80.68 209.43   C 79.67 210.04 78.97 209.91 78.06 209.33   Q 77.64 209.05 77.16 209.22   Q 75.62 209.76 74.72 210.85   Q 74.30 211.38 74.94 211.57   Z   M 71.08 216.34   C 70.78 217.74 70.35 218.24 69.23 219.80   Q 68.88 220.29 69.45 220.12   Q 71.82 219.42 74.73 216.34   A 0.70 0.69 39.1 0 0 74.62 215.30   Q 73.36 214.43 72.00 215.11   Q 71.26 215.49 71.08 216.34   Z"></path>
  <path fill="#012e6f" d="   M 164.80 204.68   Q 164.75 204.77 164.83 204.82   L 165.05 204.94   Q 165.10 204.97 165.13 204.93   L 171.61 196.23   Q 171.77 196.01 172.04 196.05   Q 172.18 196.07 172.29 196.13   Q 172.67 196.35 172.55 196.77   Q 171.89 199.21 170.37 201.37   Q 162.31 212.85 153.91 221.98   Q 152.96 223.02 154.37 222.93   Q 156.77 222.77 158.60 224.39   A 1.49 1.48 52.0 0 0 160.28 224.60   Q 164.76 222.29 166.95 221.34   Q 168.15 220.81 168.47 220.04   Q 168.89 219.00 168.25 217.60   A 1.89 1.86 -42.7 0 1 168.33 215.87   L 170.63 211.89   Q 170.76 211.67 171.00 211.64   Q 171.14 211.63 171.27 211.63   Q 171.85 211.62 171.88 212.20   C 172.06 216.05 171.15 221.65 167.60 224.07   Q 166.85 224.59 160.71 227.69   C 159.55 228.27 158.52 228.18 157.44 228.35   Q 156.90 228.44 156.66 228.85   C 154.56 232.40 155.09 236.61 150.35 238.04   C 147.11 239.03 145.33 236.13 145.73 233.01   Q 147.01 222.80 150.17 212.05   A 1.00 0.99 -81.8 0 1 151.12 211.33   L 151.51 211.33   Q 152.10 211.33 151.97 211.91   L 149.78 221.97   Q 149.17 224.77 150.94 222.52   L 161.99 208.47   Q 162.29 208.09 162.12 207.64   Q 161.94 207.19 162.21 206.90   Q 162.55 206.53 162.58 206.49   Q 165.85 201.26 168.55 196.75   A 0.29 0.28 14.0 0 1 168.80 196.61   L 169.34 196.61   Q 170.00 196.61 169.64 197.16   L 164.80 204.68   Z   M 151.93 231.49   A 1.77 1.77 0.0 0 0 153.21 231.00   L 154.88 229.41   A 1.77 1.77 0.0 0 0 153.65 226.35   L 150.38 226.37   A 1.77 1.77 0.0 0 0 148.62 228.21   L 148.68 229.74   A 1.77 1.77 0.0 0 0 150.39 231.43   L 151.93 231.49   Z"></path>
  <path fill="#012e6f" d="   M 34.87 213.54   L 34.87 216.16   Q 34.87 216.57 34.70 216.93   Q 33.42 219.64 31.71 220.64   Q 28.79 222.33 31.06 219.81   L 32.81 217.85   Q 33.24 217.38 32.92 216.83   L 32.30 215.75   Q 31.99 215.22 32.24 214.66   Q 33.72 211.30 36.86 209.57   C 41.56 206.99 48.33 204.92 54.15 201.92   Q 56.91 200.50 55.12 203.03   Q 53.65 205.10 50.57 206.35   Q 39.21 210.97 35.34 212.79   Q 34.87 213.02 34.87 213.54   Z"></path>
  <path fill="#012e6f" d="   M 136.97 214.79   Q 137.04 214.67 137.10 214.52   A 0.81 0.71 4.7 0 0 136.18 213.56   Q 133.94 213.91 133.06 213.20   Q 132.24 212.55 132.70 210.70   Q 133.31 208.27 134.34 207.05   C 137.42 203.41 140.53 208.95 140.04 211.81   C 139.26 216.46 137.15 219.89 132.45 220.93   Q 131.90 221.06 130.21 222.54   Q 129.27 223.36 128.49 224.63   Q 125.97 228.76 124.59 230.35   Q 120.74 234.78 115.24 237.46   A 0.34 0.34 0.0 0 1 114.87 237.42   L 114.62 237.23   Q 114.33 237.00 114.63 236.79   Q 117.08 235.08 119.30 233.32   C 123.07 230.34 124.15 227.65 127.64 221.90   Q 130.21 217.69 135.88 215.91   A 2.30 1.03 -69.8 0 0 136.97 214.79   Z"></path>
  <path fill="#012e6f" d="   M 115.07 209.77   Q 114.96 209.76 114.74 209.69   A 0.54 0.53 15.4 0 1 114.37 209.05   Q 114.77 207.33 115.36 206.49   A 1.15 1.15 0.0 0 1 117.45 207.13   Q 117.56 211.76 113.31 213.56   Q 113.00 213.69 112.84 213.40   L 112.65 213.08   A 0.38 0.38 0.0 0 1 112.84 212.54   Q 114.41 211.90 115.41 210.53   Q 115.89 209.86 115.07 209.77   Z"></path>
  <path fill="#012e6f" d="   M 80.73 244.00   L 78.10 244.00   Q 71.67 242.48 72.43 235.73   Q 73.30 228.01 78.76 219.81   A 0.36 0.36 0.0 0 1 79.24 219.70   L 79.58 219.90   A 0.44 0.44 0.0 0 1 79.76 220.49   Q 78.37 223.13 76.09 228.14   C 73.71 233.38 76.53 238.70 82.80 237.52   Q 88.91 236.36 92.19 231.07   A 1.50 1.49 -59.1 0 0 91.67 228.98   L 88.90 227.38   A 1.69 1.68 -67.3 0 1 88.12 225.47   Q 90.04 218.41 95.92 213.95   Q 96.38 213.60 96.95 213.60   L 98.48 213.60   Q 99.00 213.60 99.35 213.22   Q 100.32 212.15 101.63 211.32   C 102.77 210.59 102.91 208.79 103.88 208.39   Q 104.27 208.22 104.65 208.43   Q 105.14 208.68 105.01 209.22   Q 104.19 212.65 102.06 214.65   Q 101.79 214.91 97.67 217.93   Q 97.29 218.21 96.88 217.97   L 95.98 217.46   Q 95.33 217.08 94.71 217.52   Q 92.84 218.86 92.00 220.18   A 0.79 0.79 0.0 0 0 92.18 221.23   Q 94.41 222.94 95.21 224.57   A 1.36 1.30 -54.7 0 1 95.33 225.38   Q 94.48 230.46 92.06 235.32   Q 88.58 242.32 80.73 244.00   Z"></path>
  <path fill="#012e6f" d="   M 178.27 221.75   C 177.86 224.47 176.66 227.38 175.55 229.89   A 1.55 1.50 -5.5 0 1 174.99 230.55   Q 174.33 230.99 174.04 230.55   Q 173.91 230.36 174.00 229.96   Q 174.96 225.62 175.62 221.22   C 176.03 218.50 177.23 215.59 178.34 213.08   A 1.55 1.50 -5.5 0 1 178.90 212.42   Q 179.56 211.98 179.85 212.42   Q 179.98 212.61 179.89 213.01   Q 178.93 217.35 178.27 221.75   Z"></path>
  <path fill="#012e6f" d="   M 188.00 222.22   L 188.00 224.38   Q 186.11 231.80 179.05 234.66   A 0.36 0.35 -30.0 0 1 178.65 234.56   Q 178.41 234.26 178.50 233.90   Q 178.56 233.65 178.86 233.42   Q 182.13 230.89 184.18 228.85   A 1.68 1.68 0.0 0 0 184.19 226.46   L 182.15 224.42   A 0.92 0.90 37.8 0 1 182.00 223.32   L 184.46 219.05   A 0.74 0.73 34.5 0 1 185.56 218.85   Q 187.22 220.20 188.00 222.22   Z"></path>
  <path fill="#012e6f" d="   M 112.90 226.67   L 110.74 224.51   Q 110.24 224.02 110.59 223.42   L 113.12 219.03   Q 113.39 218.57 113.85 218.85   Q 117.82 221.21 116.22 225.74   Q 114.04 231.92 107.89 234.64   Q 107.47 234.83 107.24 234.42   Q 107.17 234.29 107.17 234.09   Q 107.16 233.78 107.42 233.56   L 112.81 228.95   A 1.56 1.56 0.0 0 0 112.90 226.67   Z"></path>
  <path fill="#012e6f" d="   M 103.43 229.02   Q 103.99 228.17 102.98 228.06   Q 100.55 227.80 100.93 226.13   Q 101.60 223.15 103.03 220.91   A 1.69 1.68 44.7 0 1 105.86 220.90   Q 107.55 223.47 106.37 226.66   Q 104.20 232.54 98.60 234.89   A 0.72 0.71 -26.1 0 1 97.70 234.59   L 97.47 234.19   A 0.66 0.66 0.0 0 1 97.78 233.25   Q 101.68 231.64 103.43 229.02   Z"></path>
  <path fill="#012e6f" d="   M 134.75 228.04   L 134.52 227.63   Q 134.37 227.38 134.47 227.10   Q 135.49 224.45 135.77 223.49   Q 136.19 222.10 136.96 221.79   C 139.51 220.80 140.91 223.28 141.13 225.47   Q 141.58 230.12 137.83 234.08   Q 135.88 236.12 134.32 235.14   A 1.59 1.57 6.8 0 1 133.69 234.35   C 133.11 232.72 134.03 230.67 134.80 228.97   Q 135.01 228.49 134.75 228.04   Z   M 136.34 228.15   L 135.42 231.46   A 0.42 0.42 0.0 0 0 135.71 231.98   L 135.85 232.02   A 2.21 2.07 15.6 0 0 138.54 230.62   L 138.58 230.49   A 2.21 2.07 15.6 0 0 137.01 227.90   L 136.86 227.86   A 0.42 0.42 0.0 0 0 136.34 228.15   Z"></path>
  <path fill="#013174" fill-opacity="0.722" d="   M 0.00 232.35   L 0.00 230.30   L 0.33 229.41   Q 0.52 228.87 1.08 228.98   Q 1.48 229.06 2.01 228.97   Q 2.74 228.84 2.74 229.59   L 2.74 232.44   A 0.63 0.62 82.0 0 1 2.29 233.04   Q 0.53 233.57 0.00 232.35   Z"></path>
  <path fill="#012c68" fill-opacity="0.827" d="   M 64.42 231.15   Q 64.45 230.28 63.94 229.58   Q 63.26 228.66 64.27 229.47   L 64.48 229.64   Q 64.61 229.74 64.87 229.68   L 65.95 229.45   Q 66.57 229.32 66.57 229.95   L 66.57 232.39   Q 66.57 232.81 66.16 232.94   Q 65.93 233.02 65.72 232.88   Q 65.55 232.77 65.54 232.57   Q 65.51 232.28 65.37 232.07   Q 65.06 231.59 64.74 232.07   Q 64.52 232.40 64.28 232.70   Q 63.68 233.47 63.91 232.60   Q 63.96 232.42 64.14 232.10   Q 64.40 231.66 64.42 231.15   Z   M 65.12 230.69   Q 64.87 231.18 65.07 231.24   Q 65.25 231.29 65.37 231.09   Q 65.48 230.91 65.40 230.70   A 0.16 0.15 -42.1 0 0 65.12 230.69   Z"></path>
  <path fill="#014eaf" fill-opacity="0.325" d="   M 65.12 230.69   A 0.16 0.15 -42.1 0 1 65.40 230.70   Q 65.48 230.91 65.37 231.09   Q 65.25 231.29 65.07 231.24   Q 64.87 231.18 65.12 230.69   Z"></path>
</svg>
